<mxfile host="app.diagrams.net" modified="2023-09-19T17:22:07.943Z" agent="Mozilla/5.0 (X11; Linux x86_64; rv:109.0) Gecko/20100101 Firefox/117.0" etag="EGYoiV__nFT2tRtXMl76" version="21.7.5" type="github">
  <diagram name="Page-1" id="kmjAjQPl-IAW9PTskgZp">
    <mxGraphModel dx="683" dy="370" grid="1" gridSize="10" guides="1" tooltips="1" connect="1" arrows="1" fold="1" page="1" pageScale="1" pageWidth="827" pageHeight="1169" background="#FFFFFF" math="0" shadow="0">
      <root>
        <mxCell id="0" />
        <mxCell id="1" parent="0" />
        <mxCell id="cjToLsPnEBZKVCT3rple-3" value="" style="ellipse;whiteSpace=wrap;html=1;aspect=fixed;fillColor=#000000;strokeColor=#FFFFFF;" parent="1" vertex="1">
          <mxGeometry x="330" y="130" width="30" height="30" as="geometry" />
        </mxCell>
        <mxCell id="cjToLsPnEBZKVCT3rple-4" value="" style="endArrow=classic;html=1;rounded=0;exitX=0.5;exitY=1;exitDx=0;exitDy=0;strokeColor=#000000;" parent="1" source="cjToLsPnEBZKVCT3rple-3" edge="1">
          <mxGeometry width="50" height="50" relative="1" as="geometry">
            <mxPoint x="350" y="220" as="sourcePoint" />
            <mxPoint x="345" y="200" as="targetPoint" />
          </mxGeometry>
        </mxCell>
        <mxCell id="cjToLsPnEBZKVCT3rple-5" value="&lt;font&gt;setup&lt;/font&gt;" style="rounded=1;whiteSpace=wrap;html=1;fillColor=#FFFFFF;strokeColor=#000000;fontColor=#000000;" parent="1" vertex="1">
          <mxGeometry x="297.5" y="200" width="95" height="30" as="geometry" />
        </mxCell>
        <mxCell id="cjToLsPnEBZKVCT3rple-6" value="" style="endArrow=classic;html=1;rounded=0;strokeColor=#000000;entryX=0.5;entryY=0;entryDx=0;entryDy=0;exitX=0.5;exitY=1;exitDx=0;exitDy=0;" parent="1" source="cjToLsPnEBZKVCT3rple-5" target="cjToLsPnEBZKVCT3rple-7" edge="1">
          <mxGeometry width="50" height="50" relative="1" as="geometry">
            <mxPoint x="345" y="230" as="sourcePoint" />
            <mxPoint x="345" y="210" as="targetPoint" />
          </mxGeometry>
        </mxCell>
        <mxCell id="cjToLsPnEBZKVCT3rple-42" style="edgeStyle=orthogonalEdgeStyle;rounded=0;orthogonalLoop=1;jettySize=auto;html=1;exitX=0.75;exitY=0;exitDx=0;exitDy=0;entryX=0;entryY=0.5;entryDx=0;entryDy=0;" parent="1" source="cjToLsPnEBZKVCT3rple-7" target="cjToLsPnEBZKVCT3rple-44" edge="1">
          <mxGeometry relative="1" as="geometry">
            <mxPoint x="480" y="285" as="targetPoint" />
            <mxPoint x="368.7499999999998" y="365" as="sourcePoint" />
            <Array as="points">
              <mxPoint x="369" y="285" />
            </Array>
          </mxGeometry>
        </mxCell>
        <mxCell id="cjToLsPnEBZKVCT3rple-43" value="deposit" style="edgeLabel;html=1;align=center;verticalAlign=middle;resizable=0;points=[];" parent="cjToLsPnEBZKVCT3rple-42" vertex="1" connectable="0">
          <mxGeometry x="0.3335" y="2" relative="1" as="geometry">
            <mxPoint x="19" y="2" as="offset" />
          </mxGeometry>
        </mxCell>
        <mxCell id="cjToLsPnEBZKVCT3rple-47" style="edgeStyle=orthogonalEdgeStyle;rounded=0;orthogonalLoop=1;jettySize=auto;html=1;exitX=0.75;exitY=1;exitDx=0;exitDy=0;entryX=1;entryY=0.5;entryDx=0;entryDy=0;" parent="1" source="cjToLsPnEBZKVCT3rple-7" target="cjToLsPnEBZKVCT3rple-46" edge="1">
          <mxGeometry relative="1" as="geometry">
            <mxPoint x="350" y="550" as="targetPoint" />
            <Array as="points">
              <mxPoint x="369" y="535" />
            </Array>
          </mxGeometry>
        </mxCell>
        <mxCell id="cjToLsPnEBZKVCT3rple-48" value="pickupdone" style="edgeLabel;html=1;align=center;verticalAlign=middle;resizable=0;points=[];" parent="cjToLsPnEBZKVCT3rple-47" vertex="1" connectable="0">
          <mxGeometry x="0.6633" y="-2" relative="1" as="geometry">
            <mxPoint x="9" y="2" as="offset" />
          </mxGeometry>
        </mxCell>
        <mxCell id="BSXn8_YuP-FKHJD0j2s5-3" style="edgeStyle=orthogonalEdgeStyle;rounded=0;orthogonalLoop=1;jettySize=auto;html=1;exitX=0;exitY=0.5;exitDx=0;exitDy=0;" edge="1" parent="1" source="cjToLsPnEBZKVCT3rple-7" target="BSXn8_YuP-FKHJD0j2s5-1">
          <mxGeometry relative="1" as="geometry" />
        </mxCell>
        <mxCell id="BSXn8_YuP-FKHJD0j2s5-4" value="&lt;div&gt;storeFood&lt;/div&gt;" style="edgeLabel;html=1;align=center;verticalAlign=middle;resizable=0;points=[];" vertex="1" connectable="0" parent="BSXn8_YuP-FKHJD0j2s5-3">
          <mxGeometry x="0.1407" y="1" relative="1" as="geometry">
            <mxPoint as="offset" />
          </mxGeometry>
        </mxCell>
        <mxCell id="BSXn8_YuP-FKHJD0j2s5-6" style="edgeStyle=orthogonalEdgeStyle;rounded=0;orthogonalLoop=1;jettySize=auto;html=1;exitX=1;exitY=0.5;exitDx=0;exitDy=0;" edge="1" parent="1" source="cjToLsPnEBZKVCT3rple-7" target="BSXn8_YuP-FKHJD0j2s5-5">
          <mxGeometry relative="1" as="geometry" />
        </mxCell>
        <mxCell id="BSXn8_YuP-FKHJD0j2s5-8" value="sendTicket" style="edgeLabel;html=1;align=center;verticalAlign=middle;resizable=0;points=[];" vertex="1" connectable="0" parent="BSXn8_YuP-FKHJD0j2s5-6">
          <mxGeometry x="0.2" y="-3" relative="1" as="geometry">
            <mxPoint as="offset" />
          </mxGeometry>
        </mxCell>
        <mxCell id="cjToLsPnEBZKVCT3rple-7" value="&lt;font&gt;idle&lt;/font&gt;" style="rounded=1;whiteSpace=wrap;html=1;fillColor=#FFFFFF;strokeColor=#000000;fontColor=#000000;" parent="1" vertex="1">
          <mxGeometry x="297.5" y="355" width="95" height="30" as="geometry" />
        </mxCell>
        <mxCell id="cjToLsPnEBZKVCT3rple-18" style="edgeStyle=orthogonalEdgeStyle;rounded=0;orthogonalLoop=1;jettySize=auto;html=1;exitX=0.5;exitY=0;exitDx=0;exitDy=0;entryX=0.25;entryY=0;entryDx=0;entryDy=0;" parent="1" source="cjToLsPnEBZKVCT3rple-14" target="cjToLsPnEBZKVCT3rple-7" edge="1">
          <mxGeometry relative="1" as="geometry" />
        </mxCell>
        <mxCell id="cjToLsPnEBZKVCT3rple-19" value="storeAccepted" style="edgeLabel;html=1;align=center;verticalAlign=middle;resizable=0;points=[];" parent="cjToLsPnEBZKVCT3rple-18" vertex="1" connectable="0">
          <mxGeometry x="-0.2116" relative="1" as="geometry">
            <mxPoint as="offset" />
          </mxGeometry>
        </mxCell>
        <mxCell id="cjToLsPnEBZKVCT3rple-14" value="&lt;font&gt;acceptRequest&lt;/font&gt;" style="rounded=1;whiteSpace=wrap;html=1;fillColor=#FFFFFF;strokeColor=#000000;fontColor=#000000;" parent="1" vertex="1">
          <mxGeometry x="10" y="290" width="120" height="30" as="geometry" />
        </mxCell>
        <mxCell id="cjToLsPnEBZKVCT3rple-20" style="edgeStyle=orthogonalEdgeStyle;rounded=0;orthogonalLoop=1;jettySize=auto;html=1;exitX=0.5;exitY=1;exitDx=0;exitDy=0;entryX=0.25;entryY=1;entryDx=0;entryDy=0;" parent="1" source="cjToLsPnEBZKVCT3rple-15" target="cjToLsPnEBZKVCT3rple-7" edge="1">
          <mxGeometry relative="1" as="geometry" />
        </mxCell>
        <mxCell id="cjToLsPnEBZKVCT3rple-21" value="storeRejected" style="edgeLabel;html=1;align=center;verticalAlign=middle;resizable=0;points=[];" parent="cjToLsPnEBZKVCT3rple-20" vertex="1" connectable="0">
          <mxGeometry x="-0.1948" relative="1" as="geometry">
            <mxPoint as="offset" />
          </mxGeometry>
        </mxCell>
        <mxCell id="cjToLsPnEBZKVCT3rple-15" value="&lt;font&gt;rejectRequest&lt;/font&gt;" style="rounded=1;whiteSpace=wrap;html=1;fillColor=#FFFFFF;strokeColor=#000000;fontColor=#000000;" parent="1" vertex="1">
          <mxGeometry x="10" y="420" width="120" height="30" as="geometry" />
        </mxCell>
        <mxCell id="cjToLsPnEBZKVCT3rple-45" style="edgeStyle=orthogonalEdgeStyle;rounded=0;orthogonalLoop=1;jettySize=auto;html=1;exitX=0.5;exitY=1;exitDx=0;exitDy=0;entryX=0.868;entryY=0;entryDx=0;entryDy=0;entryPerimeter=0;" parent="1" source="cjToLsPnEBZKVCT3rple-44" target="cjToLsPnEBZKVCT3rple-7" edge="1">
          <mxGeometry relative="1" as="geometry">
            <Array as="points">
              <mxPoint x="480" y="320" />
              <mxPoint x="380" y="320" />
            </Array>
          </mxGeometry>
        </mxCell>
        <mxCell id="cjToLsPnEBZKVCT3rple-44" value="&lt;font&gt;charged&lt;/font&gt;" style="rounded=1;whiteSpace=wrap;html=1;fillColor=#FFFFFF;strokeColor=#000000;fontColor=#000000;" parent="1" vertex="1">
          <mxGeometry x="440" y="270" width="80" height="30" as="geometry" />
        </mxCell>
        <mxCell id="cjToLsPnEBZKVCT3rple-49" style="edgeStyle=orthogonalEdgeStyle;rounded=0;orthogonalLoop=1;jettySize=auto;html=1;exitX=0.5;exitY=0;exitDx=0;exitDy=0;entryX=0.5;entryY=1;entryDx=0;entryDy=0;" parent="1" source="cjToLsPnEBZKVCT3rple-46" target="cjToLsPnEBZKVCT3rple-7" edge="1">
          <mxGeometry relative="1" as="geometry">
            <Array as="points">
              <mxPoint x="228" y="500" />
              <mxPoint x="345" y="500" />
            </Array>
          </mxGeometry>
        </mxCell>
        <mxCell id="cjToLsPnEBZKVCT3rple-46" value="taken" style="rounded=1;whiteSpace=wrap;html=1;fillColor=#FFFFFF;strokeColor=#000000;fontColor=#000000;" parent="1" vertex="1">
          <mxGeometry x="180" y="520" width="95" height="30" as="geometry" />
        </mxCell>
        <mxCell id="BSXn8_YuP-FKHJD0j2s5-10" style="edgeStyle=orthogonalEdgeStyle;rounded=0;orthogonalLoop=1;jettySize=auto;html=1;exitX=0;exitY=0.5;exitDx=0;exitDy=0;entryX=1;entryY=0.5;entryDx=0;entryDy=0;" edge="1" parent="1" source="BSXn8_YuP-FKHJD0j2s5-1" target="BSXn8_YuP-FKHJD0j2s5-9">
          <mxGeometry relative="1" as="geometry" />
        </mxCell>
        <mxCell id="BSXn8_YuP-FKHJD0j2s5-1" value="requestEvaluation" style="rounded=1;whiteSpace=wrap;html=1;fillColor=#FFFFFF;strokeColor=#000000;fontColor=#000000;" vertex="1" parent="1">
          <mxGeometry x="110" y="355" width="120" height="30" as="geometry" />
        </mxCell>
        <mxCell id="BSXn8_YuP-FKHJD0j2s5-7" style="edgeStyle=orthogonalEdgeStyle;rounded=0;orthogonalLoop=1;jettySize=auto;html=1;exitX=0.5;exitY=1;exitDx=0;exitDy=0;entryX=0.75;entryY=1;entryDx=0;entryDy=0;" edge="1" parent="1">
          <mxGeometry relative="1" as="geometry">
            <mxPoint x="546.25" y="385" as="sourcePoint" />
            <mxPoint x="380" y="385" as="targetPoint" />
            <Array as="points">
              <mxPoint x="546.25" y="480" />
              <mxPoint x="380.25" y="480" />
            </Array>
          </mxGeometry>
        </mxCell>
        <mxCell id="BSXn8_YuP-FKHJD0j2s5-5" value="ticketEvaluation" style="rounded=1;whiteSpace=wrap;html=1;fillColor=#FFFFFF;strokeColor=#000000;fontColor=#000000;" vertex="1" parent="1">
          <mxGeometry x="480" y="355" width="110" height="30" as="geometry" />
        </mxCell>
        <mxCell id="BSXn8_YuP-FKHJD0j2s5-11" style="edgeStyle=orthogonalEdgeStyle;rounded=0;orthogonalLoop=1;jettySize=auto;html=1;exitX=0.5;exitY=0;exitDx=0;exitDy=0;entryX=0.5;entryY=1;entryDx=0;entryDy=0;" edge="1" parent="1" source="BSXn8_YuP-FKHJD0j2s5-9" target="cjToLsPnEBZKVCT3rple-14">
          <mxGeometry relative="1" as="geometry" />
        </mxCell>
        <mxCell id="BSXn8_YuP-FKHJD0j2s5-12" style="edgeStyle=orthogonalEdgeStyle;rounded=0;orthogonalLoop=1;jettySize=auto;html=1;exitX=0.5;exitY=1;exitDx=0;exitDy=0;entryX=0.5;entryY=0;entryDx=0;entryDy=0;" edge="1" parent="1" source="BSXn8_YuP-FKHJD0j2s5-9" target="cjToLsPnEBZKVCT3rple-15">
          <mxGeometry relative="1" as="geometry" />
        </mxCell>
        <mxCell id="BSXn8_YuP-FKHJD0j2s5-9" value="" style="rhombus;whiteSpace=wrap;html=1;" vertex="1" parent="1">
          <mxGeometry x="50" y="350" width="40" height="40" as="geometry" />
        </mxCell>
      </root>
    </mxGraphModel>
  </diagram>
</mxfile>
